<svg width="50" height="50" viewBox="0 0 50 50" fill="none" xmlns="http://www.w3.org/2000/svg">
<path d="M25 49C38.2548 49 49 38.2548 49 25C49 11.7452 38.2548 1 25 1C11.7452 1 1 11.7452 1 25C1 38.2548 11.7452 49 25 49Z" fill="#4567DE" stroke="#4567DE" stroke-width="2"/>
<path d="M29.261 14.9812H32V10.2112C31.528 10.1462 29.903 10 28.01 10C24.062 10 21.357 12.4837 21.357 17.0487V21.25H17V26.5825H21.357V40H26.699V26.5838H30.88L31.544 21.2513H26.698V17.5775C26.699 16.0362 27.114 14.9812 29.261 14.9812Z" fill="white"/>
</svg>
