<svg width="50" height="50" viewBox="0 0 50 50" fill="none" xmlns="http://www.w3.org/2000/svg">
<path d="M25 49C38.2548 49 49 38.2548 49 25C49 11.7452 38.2548 1 25 1C11.7452 1 1 11.7452 1 25C1 38.2548 11.7452 49 25 49Z" fill="#EA6D6D" stroke="#EA6D6D" stroke-width="2"/>
<path d="M40.364 18.8201C40.293 17.2261 40.032 16.1302 39.657 15.1806C39.27 14.1727 38.675 13.2702 37.896 12.52C37.135 11.7582 36.213 11.1662 35.202 10.7912C34.232 10.4219 33.126 10.1641 31.508 10.0939C29.878 10.0176 29.361 10 25.227 10C21.093 10 20.576 10.0176 18.952 10.0879C17.334 10.1582 16.222 10.4162 15.258 10.7852C14.235 11.1662 13.319 11.7522 12.558 12.52C11.784 13.2702 11.184 14.1786 10.803 15.1749C10.428 16.1302 10.167 17.2201 10.095 18.8142C10.018 20.4201 10 20.9299 10 25.003C10 29.0761 10.018 29.5859 10.089 31.1858C10.161 32.7799 10.422 33.8757 10.797 34.8253C11.184 35.8333 11.784 36.7357 12.558 37.4859C13.319 38.2478 14.241 38.8398 15.252 39.2148C16.222 39.584 17.328 39.8418 18.946 39.9121C20.57 39.9826 21.087 40 25.221 40C29.355 40 29.872 39.9826 31.496 39.9121C33.114 39.8418 34.226 39.584 35.19 39.2148C37.236 38.4353 38.854 36.8413 39.645 34.8253C40.019 33.87 40.281 32.7799 40.353 31.1858C40.424 29.5859 40.442 29.0761 40.442 25.003C40.442 20.9299 40.436 20.4201 40.364 18.8201ZM37.623 31.0686C37.557 32.5338 37.307 33.3249 37.099 33.8524C36.588 35.1593 35.535 36.1966 34.208 36.7007C33.673 36.9058 32.864 37.1519 31.383 37.2162C29.777 37.2868 29.295 37.3042 25.233 37.3042C21.17 37.3042 20.683 37.2868 19.083 37.2162C17.596 37.1519 16.793 36.9058 16.257 36.7007C15.597 36.4603 14.996 36.0794 14.509 35.5812C14.003 35.0948 13.616 34.5087 13.372 33.8583C13.164 33.3309 12.915 32.5338 12.849 31.0746C12.778 29.4922 12.76 29.0174 12.76 25.0147C12.76 21.0119 12.778 20.5313 12.849 18.9549C12.915 17.4898 13.164 16.6986 13.372 16.1712C13.616 15.5206 14.003 14.9288 14.515 14.4481C15.008 13.9499 15.603 13.569 16.263 13.3288C16.799 13.1237 17.608 12.8776 19.089 12.8131C20.695 12.7428 21.176 12.7252 25.239 12.7252C29.307 12.7252 29.789 12.7428 31.389 12.8131C32.876 12.8776 33.679 13.1237 34.214 13.3288C34.874 13.569 35.475 13.9499 35.963 14.4481C36.469 14.9345 36.855 15.5206 37.099 16.1712C37.307 16.6986 37.557 17.4955 37.623 18.9549C37.694 20.5373 37.712 21.0119 37.712 25.0147C37.712 29.0174 37.694 29.4863 37.623 31.0686Z" fill="white"/>
<path d="M25.2268 17.2964C20.9088 17.2964 17.4048 20.7482 17.4048 25.003C17.4048 29.2578 20.9088 32.7096 25.2268 32.7096C29.5448 32.7096 33.0478 29.2578 33.0478 25.003C33.0478 20.7482 29.5448 17.2964 25.2268 17.2964ZM25.2268 30.0021C22.4258 30.0021 20.1528 27.7634 20.1528 25.003C20.1528 22.2426 22.4258 20.0039 25.2268 20.0039C28.0278 20.0039 30.3008 22.2426 30.3008 25.003C30.3008 27.7634 28.0278 30.0021 25.2268 30.0021Z" fill="white"/>
<path d="M35.1842 16.9915C35.1842 17.9851 34.3662 18.7907 33.3582 18.7907C32.3492 18.7907 31.5322 17.9851 31.5322 16.9915C31.5322 15.9977 32.3492 15.1924 33.3582 15.1924C34.3662 15.1924 35.1842 15.9977 35.1842 16.9915Z" fill="white"/>
</svg>
