<svg width="50" height="50" viewBox="0 0 50 50" fill="none" xmlns="http://www.w3.org/2000/svg">
<path d="M25 49C38.2548 49 49 38.2548 49 25C49 11.7452 38.2548 1 25 1C11.7452 1 1 11.7452 1 25C1 38.2548 11.7452 49 25 49Z" fill="#52E0FF" stroke="#52E0FF" stroke-width="2"/>
<path d="M7.53604 36.6843C10.955 38.8538 14.934 40 19.042 40C25.058 40 30.571 37.689 34.566 33.4933C38.39 29.4776 40.493 24.0818 40.388 18.606C41.838 17.3659 43.542 14.998 43.542 12.6901C43.542 11.8054 42.582 11.2438 41.804 11.6946C40.442 12.4947 39.2 12.704 37.923 12.3455C35.316 9.8037 31.434 9.2683 28.163 11.0315C25.304 12.5701 23.715 15.3857 23.858 18.4629C19.028 17.8736 14.566 15.4519 11.455 11.6885C10.944 11.0746 9.97503 11.1469 9.56903 11.8423C8.07003 14.4087 8.08604 17.3828 9.38904 19.7845C8.76904 19.8938 8.38602 20.4153 8.38602 20.98C8.38602 23.394 9.47204 25.6127 11.221 27.1267C10.895 27.4405 10.787 27.9067 10.926 28.3221C11.695 30.6331 13.437 32.4394 15.614 33.3441C13.246 34.4749 10.627 34.8519 8.29602 34.5657C7.09002 34.4026 6.49504 36.0243 7.53604 36.6843ZM19.357 33.7395C20.22 33.0764 19.762 31.6947 18.679 31.6716C16.771 31.6316 15.034 30.6916 13.952 29.213C14.474 29.1791 15.014 29.0991 15.528 28.9606C16.699 28.6437 16.643 26.9543 15.454 26.7159C13.295 26.282 11.601 24.7095 10.966 22.6848C11.546 22.8278 12.137 22.9079 12.726 22.9186C13.894 22.9248 14.335 21.4277 13.383 20.8015C11.237 19.3876 10.321 16.8904 10.927 14.5426C14.675 18.3398 19.76 20.6277 25.139 20.8861C25.91 20.9338 26.489 20.2092 26.319 19.4753C25.589 16.3073 27.358 14.0871 29.258 13.064C31.138 12.0485 34.157 11.7316 36.471 14.1595C37.159 14.8841 39.479 14.9118 40.659 14.6364C40.13 15.6334 39.316 16.5796 38.554 17.112C38.23 17.3397 38.043 17.7182 38.063 18.1136C38.311 23.1679 36.428 28.1929 32.897 31.8993C29.34 35.6335 24.421 37.6906 19.043 37.6906C16.905 37.6906 14.808 37.3429 12.826 36.672C15.195 36.2135 17.446 35.2104 19.357 33.7395Z" fill="white"/>
</svg>
